<?xml version="1.0" encoding="iso-8859-1"?>
<!-- Generator: Adobe Illustrator 19.0.0, SVG Export Plug-In . SVG Version: 6.00 Build 0)  -->
<svg version="1.1" id="Layer_1" xmlns="http://www.w3.org/2000/svg" xmlns:xlink="http://www.w3.org/1999/xlink" x="0px" y="0px"
	 viewBox="0 0 511.999 511.999" style="enable-background:new 0 0 511.999 511.999;" xml:space="preserve">
<g>
	<g>
		<path d="M479.334,97.912H32.666C14.654,97.912,0,112.566,0,130.578V381.42c0,18.013,14.654,32.667,32.666,32.667h446.667
			c18.012,0,32.666-14.654,32.666-32.666V130.578C512,112.566,497.346,97.912,479.334,97.912z M479.334,393.689H32.666
			c-6.764,0-12.268-5.503-12.268-12.268V130.578c0-6.764,5.503-12.268,12.268-12.268h446.667c6.765,0,12.268,5.504,12.268,12.268
			v250.843h0.001C491.602,388.185,486.098,393.689,479.334,393.689z" fill="#4f75c9"/>
	</g>
</g>
<g>
	<g>
		<path d="M445.027,182.422H311.004c-5.632,0-10.199,4.566-10.199,10.199c0,5.633,4.566,10.199,10.199,10.199h134.023
			c5.632,0,10.199-4.566,10.199-10.199C455.226,186.989,450.659,182.422,445.027,182.422z" fill="#4f75c9"/>
	</g>
</g>
<g>
	<g>
		<path d="M445.027,247.912H311.004c-5.632,0-10.199,4.566-10.199,10.199c0,5.633,4.566,10.199,10.199,10.199h134.023
			c5.632,0,10.199-4.566,10.199-10.199C455.226,252.478,450.659,247.912,445.027,247.912z" fill="#4f75c9"/>
	</g>
</g>
<g>
	<g>
		<path d="M445.578,313.4h-8.032c-5.632,0-10.199,4.566-10.199,10.199s4.567,10.199,10.199,10.199h8.032
			c5.632,0,10.199-4.566,10.199-10.199S451.21,313.4,445.578,313.4z" fill="#4f75c9"/>
	</g>
</g>
<g>
	<g>
		<path d="M398.789,313.4h-87.785c-5.632,0-10.199,4.566-10.199,10.199s4.567,10.199,10.199,10.199h87.785
			c5.632,0,10.199-4.566,10.199-10.199S404.421,313.4,398.789,313.4z" fill="#4f75c9"/>
	</g>
</g>
<g>
	<g>
		<path d="M160.989,266.053c-49.12,0-89.082,37.712-89.082,84.064c0,5.633,4.566,10.199,10.199,10.199h157.764
			c5.633,0,10.199-4.566,10.199-10.199C250.071,303.764,210.109,266.053,160.989,266.053z M150.029,339.918H93.187
			c4.704-26.964,27.748-48.294,56.842-52.64V339.918z M170.428,339.918V287.05c29.812,3.814,53.578,25.434,58.365,52.868H170.428z"
			 fill="#4f75c9"/>
	</g>
</g>
<g>
	<g>
		<path d="M160.128,150.071c-29.244,0-53.036,23.792-53.036,53.036s23.792,53.036,53.036,53.036s53.036-23.792,53.036-53.036
			S189.372,150.071,160.128,150.071z M160.128,235.744c-17.997,0-32.637-14.641-32.637-32.637s14.641-32.637,32.637-32.637
			s32.637,14.641,32.637,32.637S178.124,235.744,160.128,235.744z" fill="#4f75c9"/>
	</g>
</g>
<g>
</g>
<g>
</g>
<g>
</g>
<g>
</g>
<g>
</g>
<g>
</g>
<g>
</g>
<g>
</g>
<g>
</g>
<g>
</g>
<g>
</g>
<g>
</g>
<g>
</g>
<g>
</g>
<g>
</g>
</svg>
