<svg id="Layer_5" enable-background="new 0 0 64 64" height="512" viewBox="0 0 64 64" width="512" xmlns="http://www.w3.org/2000/svg" xmlns:xlink="http://www.w3.org/1999/xlink"><linearGradient id="SVGID_1_" gradientUnits="userSpaceOnUse" x1="32" x2="32" y1="63" y2="1"><stop offset="0" stop-color="#9f2fff"/><stop offset="1" stop-color="#0bb1d3"/></linearGradient><path d="m15 7h-2v-2h2zm-4-2h-2v2h2zm-4 0h-2v2h2zm26 14h-2v2h2zm-4 0h-2v2h2zm-4 0h-2v2h2zm6 26h2v-2h-2zm-4 0h2v-2h-2zm-4 0h2v-2h-2zm18-14h-2v2h2zm-8 0h-2v2h2zm4 0h-2v2h2zm26 5v24c0 1.654-1.346 3-3 3h-30c-1.654 0-3-1.346-3-3v-11h-5c-1.654 0-3-1.346-3-3v-4c0-1.654 1.346-3 3-3v-2c-1.654 0-3-1.346-3-3v-3h-15c-1.654 0-3-1.346-3-3v-24c0-1.654 1.346-3 3-3h30c1.654 0 3 1.346 3 3v11h5c1.654 0 3 1.346 3 3v4c0 1.654-1.346 3-3 3v2c1.654 0 3 1.346 3 3v3h15c1.654 0 3 1.346 3 3zm-3-1h-15.184c-.414 1.161-1.514 2-2.816 2v2c1.302 0 2.402.839 2.816 2h16.184v-5c0-.552-.449-1-1-1zm-20-10h-16v2h16zm2-8h-20c-.551 0-1 .449-1 1v4c0 .551.449 1 1 1h20c.551 0 1-.449 1-1v-4c0-.551-.449-1-1-1zm-39-13v5h32v-5c0-.551-.449-1-1-1h-30c-.551 0-1 .449-1 1zm1 25h15.184c.414-1.161 1.514-2 2.816-2v-2c-1.654 0-3-1.346-3-3v-4c0-1.654 1.346-3 3-3h13v-4h-32v17c0 .551.449 1 1 1zm18 6h20c.551 0 1-.448 1-1v-4c0-.551-.449-1-1-1h-20c-.551 0-1 .449-1 1v4c0 .552.449 1 1 1zm2 4h16v-2h-16zm-2 8h20c.551 0 1-.448 1-1v-4c0-.552-.449-1-1-1h-20c-.551 0-1 .448-1 1v4c0 .552.449 1 1 1zm39 13v-17h-16v3c0 1.654-1.346 3-3 3h-13v11c0 .552.449 1 1 1h30c.551 0 1-.448 1-1zm-38-2v-2h-2v2zm-5.196-10-6.804-10.887-6.804 10.887h3.804v5c0 2.757 2.243 5 5 5h6v-2h-6c-1.654 0-3-1.346-3-3v-7h-2.196l3.196-5.113 3.196 5.113h-2.196v6c0 1.103.897 2 2 2h11v-2h-11v-4zm25.196-40v-2h-2v2zm3.196 8 6.804 10.887 6.804-10.887h-3.804v-5c0-2.757-2.243-5-5-5h-6v2h6c1.654 0 3 1.346 3 3v7h2.196l-3.196 5.113-3.196-5.113h2.196v-6c0-1.103-.897-2-2-2h-11v2h11v4zm-29.196-1v10c0 1.103-.897 2-2 2h-8c-1.103 0-2-.897-2-2v-10c0-1.103.897-2 2-2h8c1.103 0 2 .897 2 2zm-1.999 10-.001-10h-8v10zm15.999 26h14v8h-14zm2 6h10v-4h-10zm16-12h-2v2h2zm2 2h8v-2h-8zm-4 4h12v-2h-12zm0 4h12v-2h-12zm10 4h2v-2h-2zm-10 0h8v-2h-8z" fill="url(#SVGID_1_)"/></svg>