<svg id="Capa_1" enable-background="new 0 0 512 512" height="512" viewBox="0 0 512 512" width="512" xmlns="http://www.w3.org/2000/svg"><g><path d="m497 33h-482c-8.284 0-15 6.716-15 15v416c0 8.284 6.716 15 15 15h482c8.284 0 15-6.716 15-15v-416c0-8.284-6.716-15-15-15zm-15 90h-60v-60h60zm-90-60v60h-362v-60zm-362 386v-296h452v296z" fill="#4f75c9"/><path d="m407 286h-86c-8.284 0-15 6.716-15 15s6.716 15 15 15h86c8.284 0 15-6.716 15-15s-6.716-15-15-15z" fill="#4f75c9"/><path d="m407 226h-56c-8.284 0-15 6.716-15 15s6.716 15 15 15h56c8.284 0 15-6.716 15-15s-6.716-15-15-15z" fill="#4f75c9"/><path d="m407 346h-86c-8.284 0-15 6.716-15 15s6.716 15 15 15h86c8.284 0 15-6.716 15-15s-6.716-15-15-15z" fill="#4f75c9"/><path d="m225 376h-120c-8.284 0-15-6.716-15-15v-120c0-8.284 6.716-15 15-15h120c8.284 0 15 6.716 15 15v120c0 8.284-6.716 15-15 15zm-105-30h90v-90h-90z" fill="#4f75c9"/></g></svg>