<svg width="1920" height="496" viewBox="0 0 1920 496" fill="none" xmlns="http://www.w3.org/2000/svg"><path d="M-76 421.5c50.667 31.834 4-75.8 64-131 75-69 230.219 11.778 279-48 86.5-106 213-140.5 282.5 48 42.634 115.632-82.5 182-92 118-9.942-66.975 125.447-16 143.5-156.5 11.5-89.5 82.657-173.224 206.5-85 97.5 69.458 247.88 40.076 217 5.5-46-51.5-149.5 33-87.5 118 79.11 108.461 184.32-68.185 251-48.5 52.5 15.5 158-8 224.5-120.5 53.2-90-7-87-37.5-66-43.17 23.5-100.1 98 71.5 224 214.5 157.5 312.5-16.5 321-41s34-90.5-20.5-145-149-36-112.5 67 227 141 324 119c77.6-17.6 170.67-98.666 207.5-137" stroke="#000" stroke-width="5" filter="url(#a)"/><defs><filter id="a" x="-127.33" y=".771" width="2345.13" height="495.156" filterUnits="userSpaceOnUse" color-interpolation-filters="sRGB"><feFlood flood-opacity="0" result="BackgroundImageFix"/><feColorMatrix in="SourceAlpha" values="0 0 0 0 0 0 0 0 0 0 0 0 0 0 0 0 0 0 127 0"/><feOffset dy="10"/><feGaussianBlur stdDeviation="25"/><feColorMatrix values="0 0 0 0 0.466667 0 0 0 0 0.466667 0 0 0 0 0.466667 0 0 0 0.2 0"/><feBlend in2="BackgroundImageFix" result="effect1_dropShadow"/><feBlend in="SourceGraphic" in2="effect1_dropShadow" result="shape"/></filter></defs></svg>