<svg width="31" height="30" viewBox="0 0 31 30" fill="#fff" xmlns="http://www.w3.org/2000/svg"><path fill-rule="evenodd" clip-rule="evenodd" d="M12.072 11.674c.648-.873.88-1.793.147-2.605-1.643-2.3-2.749-3.722-3.442-4.407C7.459 3.36 5.29 3.536 4.148 4.66c-.613.604-.82.811-1.45 1.451C-.809 9.621 1.33 17.039 7.015 22.73c5.685 5.69 13.102 7.83 16.616 4.314a46.29 46.29 0 0 0 1.461-1.463c1.119-1.182 1.289-3.255-.007-4.602-.665-.69-2.02-1.742-4.418-3.457-.734-.656-1.604-.514-2.402.01-.384.252-.663.506-1.19 1.034l-.958.959c-.127.126-1.84-.732-3.502-2.396-1.664-1.666-2.521-3.379-2.396-3.505.26-.258.579-.578.959-.959.167-.167.247-.248.35-.356.213-.225.39-.428.544-.635zm5.809 9.619l.958-.96c.29-.29.478-.468.631-.591 2.1 1.507 3.316 2.455 3.813 2.971.298.31.252.876-.008 1.15-.358.379-.825.845-1.396 1.397-2.273 2.273-8.26.546-13.099-4.297C3.94 16.118 2.214 10.13 4.47 7.873c.627-.637.826-.835 1.43-1.43.227-.224.844-.274 1.12-.002.534.527 1.524 1.795 2.98 3.824-.075.094-.169.2-.284.32-.084.089-.154.16-.307.313l-.958.958c-1.628 1.629-.241 4.401 2.395 7.04 2.634 2.637 5.408 4.026 7.036 2.396z"/></svg>