<svg height="512" viewBox="0 0 512 512" width="512" xmlns="http://www.w3.org/2000/svg" xmlns:xlink="http://www.w3.org/1999/xlink"><linearGradient id="a" gradientUnits="userSpaceOnUse" x1="28.73" x2="498.76" y1="483.27" y2="13.24" data-name="New Gradient Swatch 1"><stop offset="0" stop-color="#003f8a"/><stop offset=".518" stop-color="#00d7df"/><stop offset="1" stop-color="#006df0"/></linearGradient><linearGradient id="b" x1=".73" x2="470.76" xlink:href="#a" y1="455.27" y2="-14.76"/><linearGradient id="c" x1="-15.27" x2="454.76" xlink:href="#a" y1="439.27" y2="-30.76"/><linearGradient id="e" x1="6.73" x2="476.76" xlink:href="#a" y1="461.27" y2="-8.76"/><linearGradient id="f" x1="26.73" x2="496.76" xlink:href="#a" y1="481.27" y2="11.24"/><linearGradient id="g" x1="-75.27" x2="394.76" xlink:href="#a" y1="379.27" y2="-90.76"/><linearGradient id="h" x1="-91.27" x2="378.76" xlink:href="#a" y1="363.27" y2="-106.76"/><linearGradient id="j" x1="-69.27" x2="400.76" xlink:href="#a" y1="385.27" y2="-84.76"/><linearGradient id="k" x1="-49.27" x2="420.76" xlink:href="#a" y1="405.27" y2="-64.76"/><linearGradient id="l" x1="76.73" x2="546.76" xlink:href="#a" y1="531.27" y2="61.24"/><linearGradient id="m" x1="60.73" x2="530.76" xlink:href="#a" y1="515.27" y2="45.24"/><linearGradient id="o" x1="82.73" x2="552.76" xlink:href="#a" y1="537.27" y2="67.24"/><linearGradient id="p" x1="102.73" x2="572.76" xlink:href="#a" y1="557.27" y2="87.24"/><linearGradient id="q" x1="80.73" x2="550.76" xlink:href="#a" y1="535.27" y2="65.24"/><linearGradient id="r" x1="64.73" x2="534.76" xlink:href="#a" y1="519.27" y2="49.24"/><linearGradient id="t" x1="86.73" x2="556.76" xlink:href="#a" y1="541.27" y2="71.24"/><linearGradient id="u" x1="106.73" x2="576.76" xlink:href="#a" y1="561.27" y2="91.24"/><linearGradient id="v" x1="4.73" x2="474.76" xlink:href="#a" y1="459.27" y2="-10.76"/><linearGradient id="w" x1="-11.27" x2="458.76" xlink:href="#a" y1="443.27" y2="-26.76"/><linearGradient id="y" x1="10.73" x2="480.76" xlink:href="#a" y1="465.27" y2="-4.76"/><linearGradient id="z" x1="30.73" x2="500.76" xlink:href="#a" y1="485.27" y2="15.24"/><linearGradient id="aa" x1="156.73" x2="626.76" xlink:href="#a" y1="611.27" y2="141.24"/><linearGradient id="ab" x1="140.73" x2="610.76" xlink:href="#a" y1="595.27" y2="125.24"/><linearGradient id="ad" x1="162.73" x2="632.76" xlink:href="#a" y1="617.27" y2="147.24"/><linearGradient id="ae" x1="182.73" x2="652.76" xlink:href="#a" y1="637.27" y2="167.24"/><g><path d="m476 56h-440a28.031 28.031 0 0 0 -28 28v344a28.031 28.031 0 0 0 28 28h440a28.031 28.031 0 0 0 28-28v-344a28.031 28.031 0 0 0 -28-28zm12 372a12.01 12.01 0 0 1 -12 12h-440a12.01 12.01 0 0 1 -12-12v-344a12.01 12.01 0 0 1 12-12h440a12.01 12.01 0 0 1 12 12z" fill="url(#a)"/><path d="m320 128h-128a8 8 0 0 0 -8 8v128a8 8 0 0 0 8 8h128a8 8 0 0 0 8-8v-128a8 8 0 0 0 -8-8zm-8 128h-112v-112h112z" fill="url(#b)"/><path d="m224 176h64a8 8 0 0 0 0-16h-64a8 8 0 0 0 0 16z" fill="url(#c)"/><path d="m224 208h64a8 8 0 0 0 0-16h-64a8 8 0 0 0 0 16z" fill="url(#b)"/><path d="m224 240h24a8 8 0 0 0 0-16h-24a8 8 0 0 0 0 16z" fill="url(#e)"/><path d="m280 224h-8a8 8 0 0 0 0 16h8a8 8 0 0 0 0-16z" fill="url(#f)"/><path d="m168 128h-128a8 8 0 0 0 -8 8v128a8 8 0 0 0 8 8h128a8 8 0 0 0 8-8v-128a8 8 0 0 0 -8-8zm-8 128h-112v-112h112z" fill="url(#g)"/><path d="m72 176h64a8 8 0 0 0 0-16h-64a8 8 0 0 0 0 16z" fill="url(#h)"/><path d="m72 208h64a8 8 0 0 0 0-16h-64a8 8 0 0 0 0 16z" fill="url(#g)"/><path d="m72 240h24a8 8 0 0 0 0-16h-24a8 8 0 0 0 0 16z" fill="url(#j)"/><path d="m128 224h-8a8 8 0 0 0 0 16h8a8 8 0 0 0 0-16z" fill="url(#k)"/><path d="m472 128h-128a8 8 0 0 0 -8 8v128a8 8 0 0 0 8 8h128a8 8 0 0 0 8-8v-128a8 8 0 0 0 -8-8zm-8 128h-112v-112h112z" fill="url(#l)"/><path d="m376 176h64a8 8 0 0 0 0-16h-64a8 8 0 0 0 0 16z" fill="url(#m)"/><path d="m376 208h64a8 8 0 0 0 0-16h-64a8 8 0 0 0 0 16z" fill="url(#l)"/><path d="m376 240h24a8 8 0 0 0 0-16h-24a8 8 0 0 0 0 16z" fill="url(#o)"/><path d="m432 224h-8a8 8 0 0 0 0 16h8a8 8 0 0 0 0-16z" fill="url(#p)"/><path d="m320 288h-128a8 8 0 0 0 -8 8v128a8 8 0 0 0 8 8h128a8 8 0 0 0 8-8v-128a8 8 0 0 0 -8-8zm-8 128h-112v-112h112z" fill="url(#q)"/><path d="m224 336h64a8 8 0 0 0 0-16h-64a8 8 0 0 0 0 16z" fill="url(#r)"/><path d="m224 368h64a8 8 0 0 0 0-16h-64a8 8 0 0 0 0 16z" fill="url(#q)"/><path d="m224 400h24a8 8 0 0 0 0-16h-24a8 8 0 0 0 0 16z" fill="url(#t)"/><path d="m280 384h-8a8 8 0 0 0 0 16h8a8 8 0 0 0 0-16z" fill="url(#u)"/><path d="m168 288h-128a8 8 0 0 0 -8 8v128a8 8 0 0 0 8 8h128a8 8 0 0 0 8-8v-128a8 8 0 0 0 -8-8zm-8 128h-112v-112h112z" fill="url(#v)"/><path d="m72 336h64a8 8 0 0 0 0-16h-64a8 8 0 0 0 0 16z" fill="url(#w)"/><path d="m72 368h64a8 8 0 0 0 0-16h-64a8 8 0 0 0 0 16z" fill="url(#v)"/><path d="m72 400h24a8 8 0 0 0 0-16h-24a8 8 0 0 0 0 16z" fill="url(#y)"/><path d="m128 384h-8a8 8 0 0 0 0 16h8a8 8 0 0 0 0-16z" fill="url(#z)"/><path d="m472 288h-128a8 8 0 0 0 -8 8v128a8 8 0 0 0 8 8h128a8 8 0 0 0 8-8v-128a8 8 0 0 0 -8-8zm-8 128h-112v-112h112z" fill="url(#aa)"/><path d="m376 336h64a8 8 0 0 0 0-16h-64a8 8 0 0 0 0 16z" fill="url(#ab)"/><path d="m376 368h64a8 8 0 0 0 0-16h-64a8 8 0 0 0 0 16z" fill="url(#aa)"/><path d="m376 400h24a8 8 0 0 0 0-16h-24a8 8 0 0 0 0 16z" fill="url(#ad)"/><path d="m432 384h-8a8 8 0 0 0 0 16h8a8 8 0 0 0 0-16z" fill="url(#ae)"/><path d="m336 88a8 8 0 0 0 -8-8h-144a8 8 0 0 0 -8 8v24a8 8 0 0 0 8 8h144a8 8 0 0 0 8-8zm-16 16h-128v-8h128z" fill="url(#k)"/></g></svg>