<svg height="511pt" viewBox="0 -5 511.99983 511" width="511pt" xmlns="http://www.w3.org/2000/svg"><path d="m473.148438 330.066406-105.503907 70.609375-31.441406-1.765625-1.230469-12.375c-1.832031-18.425781-16.019531-33.210937-34.351562-35.804687l-84.242188-9.699219c-19.433594-2.75-38.144531-9.261719-55.085937-19.171875-23.132813-13.53125-49.445313-20.664063-76.242188-20.664063h-60.738281v138.648438l160.53125 60.789062c6.066406 1.714844 12.4375 2.226563 18.664062 1.242188.039063-.007812.074219-.011719.113282-.019531l161.617187-23.292969c12.449219-1.988281 24.152344-7.234375 33.925781-15.203125l104.453126-93.945313c9.375-8.324218 11.113281-22.3125 4.0625-32.679687-7.71875-11.339844-23.144532-14.320313-34.53125-6.667969zm0 0" fill="#ffe8c2"/><path d="m505.378906 333.84375-106.214844 75c-9.769531 7.96875-21.476562 13.210938-33.925781 15.199219l-161.617187 23.296875c-.035156.007812-.074219.011718-.113282.019531-6.226562.984375-12.597656.46875-18.664062-1.242187l-160.53125-60.792969v54.519531l160.53125 60.792969c6.066406 1.710937 12.4375 2.222656 18.664062 1.238281.039063-.003906.078126-.011719.113282-.015625l161.617187-23.296875c12.449219-1.988281 24.15625-7.230469 33.925781-15.199219l104.453126-93.949219c9.375-8.320312 11.113281-22.3125 4.0625-32.675781-.707032-1.039062-1.476563-2-2.300782-2.894531zm0 0" fill="#efd5af"/><path d="m55.351562 480.613281h-46.855468c-4.691406 0-8.496094-3.800781-8.496094-8.496093v-189.074219c0-4.691407 3.804688-8.496094 8.496094-8.496094h46.855468c4.691407 0 8.496094 3.804687 8.496094 8.496094v189.074219c0 4.695312-3.804687 8.496093-8.496094 8.496093zm0 0" fill="#ff9248"/><path d="m0 472.117188c0 4.695312 3.804688 8.496093 8.496094 8.496093h46.855468c4.691407 0 8.496094-3.800781 8.496094-8.496093v-46.019532h-63.847656zm0 0" fill="#f97c28"/><path d="m208.671875 411.722656-51.753906-12.699218c-4.144531-1.023438-8.328125 1.515624-9.34375 5.660156-1.015625 4.144531 1.519531 8.328125 5.660156 9.347656l53.28125 13.074219c.601563.148437 1.222656.222656 1.839844.222656.414062 0 .828125-.035156 1.234375-.101563l126.613281-28.316406-.8125-8.15625zm0 0" fill="#efd5af"/><path d="m401.027344 149.332031c0 82.199219-66.636719 148.832031-148.832032 148.832031-82.199218 0-148.832031-66.632812-148.832031-148.832031s66.632813-148.832031 148.832031-148.832031c82.195313 0 148.832032 66.632812 148.832032 148.832031zm0 0" fill="#88dbfd"/><g fill="#5abfe9"><path d="m252.195312.5c-9.3125 0-18.421874.863281-27.261718 2.5 69.179687 12.804688 121.574218 73.445312 121.574218 146.332031s-52.394531 133.527344-121.574218 146.332031c8.839844 1.636719 17.949218 2.5 27.261718 2.5 82.195313 0 148.832032-66.636718 148.832032-148.832031 0-82.195312-66.636719-148.832031-148.832032-148.832031zm0 0"/><path d="m252.195312 298.164062c-20.019531 0-38.339843-16.257812-51.582031-45.777343-12.402343-27.648438-19.234375-64.246094-19.234375-103.054688 0-38.804687 6.832032-75.402343 19.234375-103.050781 13.242188-29.523438 31.5625-45.78125 51.582031-45.78125 20.019532 0 38.335938 16.257812 51.578126 45.78125 12.402343 27.648438 19.234374 64.246094 19.234374 103.050781 0 38.808594-6.832031 75.40625-19.234374 103.054688-13.242188 29.519531-31.558594 45.777343-51.578126 45.777343zm0-282.972656c-13.6875 0-27.601562 13.523438-38.179687 37.101563-11.574219 25.796875-17.945313 60.261719-17.945313 97.039062 0 36.777344 6.371094 71.242188 17.945313 97.039063 10.578125 23.578125 24.492187 37.101562 38.179687 37.101562 13.683594 0 27.601563-13.523437 38.175782-37.101562 11.574218-25.796875 17.945312-60.261719 17.945312-97.039063 0-36.777343-6.371094-71.242187-17.945312-97.039062-10.574219-23.578125-24.492188-37.101563-38.175782-37.101563zm0 0"/><path d="m113.664062 203.847656h277.0625c1.976563-5.023437 3.6875-10.179687 5.121094-15.453125h-287.304687c1.429687 5.273438 3.144531 10.429688 5.121093 15.453125zm0 0"/><path d="m108.542969 110.269531h287.304687c-1.433594-5.273437-3.144531-10.429687-5.121094-15.453125h-277.0625c-1.980468 5.023438-3.691406 10.179688-5.121093 15.453125zm0 0"/></g></svg>