<svg height="512" viewBox="0 0 512 512" width="512" xmlns="http://www.w3.org/2000/svg" xmlns:xlink="http://www.w3.org/1999/xlink"><linearGradient id="New_Gradient_Swatch_2" gradientUnits="userSpaceOnUse" x1="256" x2="256" y1="40.101" y2="457.165"><stop offset="0" stop-color="#fc5c7d"/><stop offset=".129" stop-color="#f35e85"/><stop offset=".343" stop-color="#d9659b"/><stop offset=".616" stop-color="#b070bf"/><stop offset=".934" stop-color="#777ff0"/><stop offset="1" stop-color="#6a82fb"/></linearGradient><linearGradient id="New_Gradient_Swatch_2-2" x1="72" x2="72" xlink:href="#New_Gradient_Swatch_2" y1="40.101" y2="457.165"/><linearGradient id="New_Gradient_Swatch_2-3" x1="104" x2="104" xlink:href="#New_Gradient_Swatch_2" y1="40.101" y2="457.165"/><linearGradient id="New_Gradient_Swatch_2-4" x1="136" x2="136" xlink:href="#New_Gradient_Swatch_2" y1="40.101" y2="457.165"/><linearGradient id="New_Gradient_Swatch_2-5" x1="328" x2="328" xlink:href="#New_Gradient_Swatch_2" y1="40.101" y2="457.165"/><linearGradient id="New_Gradient_Swatch_2-6" x1="248" x2="248" xlink:href="#New_Gradient_Swatch_2" y1="40.101" y2="457.165"/><linearGradient id="New_Gradient_Swatch_2-7" x1="80" x2="80" xlink:href="#New_Gradient_Swatch_2" y1="40.101" y2="457.165"/><linearGradient id="New_Gradient_Swatch_2-10" x1="152" x2="152" xlink:href="#New_Gradient_Swatch_2" y1="40.101" y2="457.165"/><g id="GD001"><path d="m448 16h-384a32.036 32.036 0 0 0 -32 32v416a32.036 32.036 0 0 0 32 32h384a32.036 32.036 0 0 0 32-32v-416a32.036 32.036 0 0 0 -32-32zm-384 16h384a16.019 16.019 0 0 1 16 16v32h-416v-32a16.019 16.019 0 0 1 16-16zm384 448h-384a16.019 16.019 0 0 1 -16-16v-368h416v368a16.019 16.019 0 0 1 -16 16z" fill="url(#New_Gradient_Swatch_2)"/><path d="m64 48h16v16h-16z" fill="url(#New_Gradient_Swatch_2-2)"/><path d="m96 48h16v16h-16z" fill="url(#New_Gradient_Swatch_2-3)"/><path d="m128 48h16v16h-16z" fill="url(#New_Gradient_Swatch_2-4)"/><path d="m376.4 248a47.287 47.287 0 0 0 -33.657 13.941l-14.743 14.746-14.745-14.746a47.6 47.6 0 0 0 -67.315 67.314l76.4 76.4a8 8 0 0 0 11.314 0l76.4-76.4a47.6 47.6 0 0 0 -33.654-81.255zm22.343 69.941-70.743 70.746-70.745-70.746a31.6 31.6 0 1 1 44.685-44.686l20.4 20.4a8 8 0 0 0 11.314 0l20.4-20.4a31.6 31.6 0 1 1 44.685 44.686z" fill="url(#New_Gradient_Swatch_2-5)"/><path d="m248 372.686-128.117-128.117a54.225 54.225 0 1 1 76.685-76.687l45.775 45.775a8 8 0 0 0 11.314 0l45.775-45.775a54.226 54.226 0 0 1 87.7 60.805l14.562 6.626a70.225 70.225 0 0 0 -113.575-78.744l-40.119 40.117-40.117-40.117a70.226 70.226 0 0 0 -99.315 99.313l133.775 133.775a8 8 0 0 0 11.314 0l16-16-11.314-11.314z" fill="url(#New_Gradient_Swatch_2-6)"/><path d="m72 376h16v16h-16z" fill="url(#New_Gradient_Swatch_2-7)"/><path d="m104 376h64v16h-64z" fill="url(#New_Gradient_Swatch_2-4)"/><path d="m72 408h128v16h-128z" fill="url(#New_Gradient_Swatch_2-4)"/><path d="m72 440h160v16h-160z" fill="url(#New_Gradient_Swatch_2-10)"/></g></svg>