<?xml version="1.0"?>
<svg xmlns="http://www.w3.org/2000/svg" viewBox="0 0 512 512" width="512" height="512"><g id="Outline"><path d="M432,452a12,12,0,1,1-12-12A12.013,12.013,0,0,1,432,452Zm69.657-334.343L395.109,224.205A23.966,23.966,0,0,1,416,248v60.687l85.657,85.656-11.314,11.314L456,371.314,371.314,456l34.343,34.343-11.314,11.314-96-96,11.314-11.314L328,412.686,412.686,328l-10.343-10.343A8,8,0,0,1,400,312V248a8,8,0,0,0-16,0v32a8,8,0,0,1-13.657,5.657L352,267.314l-30.343,30.343a24.8,24.8,0,0,1-16.709,7.293,24.793,24.793,0,0,1-7.291,16.707L251.313,368H264a24,24,0,0,1,0,48H203.313l-85.656,85.657-11.314-11.314L140.686,456,56,371.314,21.657,405.657,10.343,394.343,116.891,287.8A23.966,23.966,0,0,1,96,264V203.313L10.343,117.657l11.314-11.314L56,140.686l18.343-18.343,11.314,11.314L67.314,152,88,172.686,172.686,88,152,67.314,97.657,121.657,86.343,110.343,140.686,56,106.343,21.657l11.314-11.314L224.205,116.891A23.966,23.966,0,0,1,248,96h60.686l85.657-85.657,11.314,11.314L371.314,56,456,140.686l34.343-34.343ZM339.314,424,360,444.686,444.686,360,424,339.314ZM120,272a8.009,8.009,0,0,0,8-8V232a8,8,0,0,1,13.657-5.657L160,244.686l30.343-30.343a24.906,24.906,0,0,1,18.593-7.279l4.721-4.721,36,36a8.97,8.97,0,1,0,12.686-12.686h0l-36-36,11.314-11.314,36,36a8.971,8.971,0,0,0,12.682,0l.007-.007a8.98,8.98,0,0,0,0-12.683L184,99.314,99.314,184l10.343,10.343A8,8,0,0,1,112,200v64a7.977,7.977,0,0,0,8,8Zm24-20.687v9.373L148.686,256ZM172.686,424,88,339.314,67.314,360,152,444.686ZM288.971,304a8.971,8.971,0,0,0-15.314-6.343l-36,36a8,8,0,0,1-11.314-11.314l36-36a8.97,8.97,0,0,0-12.686-12.686l-36,36a8,8,0,0,1-11.314-11.314l36-36a8.97,8.97,0,1,0-12.686-12.686l-36,36a8,8,0,0,1-11.314-11.314l36-36a8.97,8.97,0,0,0-12.686-12.686L99.314,328,184,412.686l10.343-10.343A8,8,0,0,1,200,400h64a8,8,0,0,0,0-16H232a8,8,0,0,1-5.657-13.657l60-60A8.911,8.911,0,0,0,288.971,304ZM368,251.314,363.314,256,368,260.687ZM412.686,184,328,99.314l-10.343,10.343A8,8,0,0,1,312,112H248a8,8,0,0,0,0,16h32a8,8,0,0,1,5.657,13.657l-8,8L272,144H251.314l46.343,46.343A24.806,24.806,0,0,1,304.972,208c0,.318-.011.634-.023.949l4.708,4.708-36,36a8.971,8.971,0,0,0,0,12.684l0,0,0,0a8.982,8.982,0,0,0,12.684,0h0l36-36,11.314,11.314-36,36a8.971,8.971,0,0,0,0,12.684l0,0,0,0a8.982,8.982,0,0,0,12.683,0Zm32-32L360,67.314,339.314,88,424,172.686ZM440,92a12,12,0,1,0,12-12A12.013,12.013,0,0,0,440,92ZM80,60A12,12,0,1,0,92,48,12.013,12.013,0,0,0,80,60ZM60,408a12,12,0,1,0,12,12A12.013,12.013,0,0,0,60,408ZM264,16H248V32h16ZM248,80h16V48H248Zm-40.857,1.817,15.581-3.634-14.933-64-15.582,3.634Zm97.714,0,14.934-64-15.582-3.634-14.933,64ZM248,496h16V480H248Zm16-64H248v32h16Zm55.791,62.183-14.934-64-15.581,3.634,14.933,64Zm-112.648-64-14.934,64,15.582,3.634,14.933-64ZM32,264V248H16v16Zm16,0H80V248H48ZM17.818,319.791l64-14.934-3.636-15.582-64,14.934Zm0-127.582-3.636,15.582,64,14.934,3.636-15.582ZM480,248v16h16V248Zm-16,0H432v16h32Zm30.182-55.791-64,14.934,3.636,15.582,64-14.934Zm0,127.582,3.636-15.582-64-14.934-3.636,15.582Z" fill="#4f75c9"/></g></svg>
