<svg width="66" height="44" viewBox="0 0 66 44" fill="#fff" xmlns="http://www.w3.org/2000/svg"><path fill-rule="evenodd" clip-rule="evenodd" d="M32.958 0c8.035 0 15.719 3.912 22.88 10.34a65.578 65.578 0 0 1 6.598 6.877c1.174 1.413 2.008 2.525 2.464 3.187l1.015 1.474L64.9 23.35c-.456.663-1.29 1.774-2.464 3.188a65.568 65.568 0 0 1-6.598 6.876c-7.161 6.428-14.845 10.34-22.88 10.34-8.036 0-15.72-3.912-22.88-10.34a65.565 65.565 0 0 1-6.599-6.876c-1.174-1.414-2.007-2.525-2.464-3.188L0 21.878l1.015-1.474c.457-.662 1.29-1.774 2.464-3.187a65.575 65.575 0 0 1 6.599-6.877C17.238 3.912 24.922 0 32.958 0zM57.77 20.557a59.994 59.994 0 0 0-6.029-6.285C45.575 8.736 39.16 5.47 32.958 5.47c-6.202 0-12.616 3.267-18.784 8.803a59.996 59.996 0 0 0-7.094 7.606 59.996 59.996 0 0 0 7.094 7.606c6.167 5.536 12.582 8.802 18.784 8.802 6.202 0 12.617-3.266 18.784-8.803a59.994 59.994 0 0 0 7.094-7.605c-.325-.416-.68-.858-1.066-1.321zm-36.598 1.32c0 6.042 5.276 10.94 11.785 10.94 6.508 0 11.784-4.898 11.784-10.94 0-6.04-5.276-10.938-11.784-10.938-6.509 0-11.785 4.897-11.785 10.939zm17.677 0c0 3.021-2.638 5.47-5.892 5.47-3.254 0-5.892-2.449-5.892-5.47 0-3.02 2.638-5.469 5.892-5.469 3.254 0 5.892 2.45 5.892 5.47z"/></svg>